<svg width="138" height="32" viewBox="0 0 138 32" fill="none" xmlns="http://www.w3.org/2000/svg">
<path d="M13.1699 9.37C10.0199 9.37 7.54187 10.756 5.98787 13.192V1.59999H0.317871V31H5.98787V27.85C7.54187 30.244 9.97787 31.63 13.0859 31.63C18.7139 31.63 22.7459 27.178 22.7459 20.5C22.7459 13.822 18.7559 9.37 13.1699 9.37ZM11.4059 26.716C8.12987 26.716 5.98787 24.238 5.98787 20.5C5.98787 16.762 8.12987 14.284 11.4059 14.284C14.6399 14.284 16.8659 16.72 16.8659 20.5C16.8659 24.238 14.6819 26.716 11.4059 26.716Z" fill="black"/>
<path d="M40.4446 24.196C39.7726 25.834 38.2186 26.716 36.1186 26.716C33.0946 26.716 31.3726 24.91 30.9526 21.886H45.6946C47.9206 15.082 43.6786 9.37 36.0346 9.37C29.3566 9.37 24.9466 13.822 24.9466 20.5C24.9466 27.178 29.2726 31.63 36.0346 31.63C41.4946 31.63 45.4006 28.732 46.6606 24.196H40.4446ZM35.9926 14.116C38.9746 14.116 40.4446 15.796 40.1926 18.316H31.0366C31.5826 15.586 33.3046 14.116 35.9926 14.116Z" fill="black"/>
<path d="M58.6027 31.63C64.2727 31.63 68.2627 29.068 68.2627 24.7C68.2627 16.678 54.9487 19.702 54.9487 16.006C54.9487 14.83 56.2087 13.864 58.3507 13.864C60.9127 13.864 62.5087 15.25 62.0047 17.308H67.5487C68.3887 12.352 64.1047 9.37 58.3507 9.37C53.0167 9.37 49.0687 11.974 49.0687 16.3C49.0687 24.28 62.3827 21.466 62.3827 25.036C62.3827 26.296 60.8287 27.136 58.6027 27.136C55.8307 27.136 54.1927 25.834 54.3187 23.734H48.8167C48.6487 28.606 52.5127 31.63 58.6027 31.63Z" fill="black"/>
<path d="M74.3409 7.312C76.2729 7.312 77.7429 5.84199 77.7429 3.90999C77.7429 1.97799 76.2729 0.507996 74.3409 0.507996C72.4089 0.507996 70.9389 1.97799 70.9389 3.90999C70.9389 5.84199 72.4089 7.312 74.3409 7.312ZM77.1549 31V10H71.4429V31H77.1549Z" fill="black"/>
<path d="M84.4718 7.312C86.4038 7.312 87.8738 5.84199 87.8738 3.90999C87.8738 1.97799 86.4038 0.507996 84.4718 0.507996C82.5398 0.507996 81.0698 1.97799 81.0698 3.90999C81.0698 5.84199 82.5398 7.312 84.4718 7.312ZM87.2858 31V10H81.5738V31H87.2858Z" fill="black"/>
<path d="M107.119 12.856C105.523 10.63 103.129 9.37 100.147 9.37C94.5606 9.37 90.6126 13.822 90.6126 20.5C90.6126 27.178 94.6026 31.63 100.189 31.63C103.171 31.63 105.565 30.37 107.119 28.186V31H112.831V1.59999H107.119V12.856ZM101.995 26.716C98.7186 26.716 96.5346 24.238 96.5346 20.5C96.5346 16.762 98.7186 14.284 101.995 14.284C105.229 14.284 107.413 16.762 107.413 20.5C107.413 24.238 105.229 26.716 101.995 26.716Z" fill="black"/>
<path d="M131.376 24.196C130.704 25.834 129.15 26.716 127.05 26.716C124.026 26.716 122.304 24.91 121.884 21.886H136.626C138.852 15.082 134.61 9.37 126.966 9.37C120.288 9.37 115.878 13.822 115.878 20.5C115.878 27.178 120.204 31.63 126.966 31.63C132.426 31.63 136.332 28.732 137.592 24.196H131.376ZM126.924 14.116C129.906 14.116 131.376 15.796 131.124 18.316H121.968C122.514 15.586 124.236 14.116 126.924 14.116Z" fill="black"/>
</svg>
