<svg width="90" height="90" viewBox="0 0 90 90" fill="none" xmlns="http://www.w3.org/2000/svg">
<g clip-path="url(#clip0_65_634)">
<path fill-rule="evenodd" clip-rule="evenodd" d="M83.5126 47.55L82.5751 45.3C82.4034 44.9174 82.1151 44.5988 81.7513 44.39C81.3876 44.1812 80.9671 44.0928 80.5501 44.1375C79.3501 44.325 78.1126 44.775 76.8001 44.8875C76.5096 44.8948 76.2227 44.8217 75.9712 44.6761C75.7197 44.5304 75.5134 44.3181 75.3751 44.0625C75.2303 43.8117 75.1541 43.5271 75.1541 43.2375C75.1541 42.9479 75.2303 42.6633 75.3751 42.4125C75.8694 41.4972 76.5162 40.6729 77.2876 39.975C77.5876 39.675 78.4501 38.9625 78.9376 38.4C79.3808 37.9298 79.6461 37.3198 79.6876 36.675C79.7244 36.2167 79.6604 35.7559 79.5001 35.325C79.5001 34.8375 78.8626 34.1625 78.7876 33.8625L76.5751 29.325C76.2058 28.6004 75.7925 27.8991 75.3376 27.225C74.9695 26.732 74.4377 26.3863 73.8376 26.25C73.3559 26.1443 72.8569 26.1443 72.3751 26.25C71.9251 26.25 71.2501 26.8125 70.9876 26.925L67.5001 28.575C67.1626 28.2 66.8251 27.9 66.7501 27.825C65.9259 26.9466 64.8944 26.289 63.7501 25.9125C62.6372 25.5558 61.461 25.4407 60.3001 25.575C58.3096 25.7921 56.4811 26.7735 55.2001 28.3125C54.5621 29.0553 54.0832 29.9211 53.7929 30.8564C53.5027 31.7916 53.4073 32.7764 53.5126 33.75C53.5971 34.2875 53.7353 34.8151 53.9251 35.325C54.0091 35.5689 54.1093 35.807 54.2251 36.0375L52.8001 36.6375L50.5501 37.725C48.6001 39.4125 49.4251 41.2125 51.5251 40.3875L53.8876 39.45C54.5626 39.225 55.4626 39.075 56.2501 38.8125C56.7115 38.6532 57.1522 38.4391 57.5626 38.175C57.8793 37.8966 58.0951 37.5214 58.1765 37.1077C58.2579 36.6941 58.2003 36.2651 58.0126 35.8875C58.0126 35.6625 57.6001 35.1 57.6001 35.0625L57.1501 33.4125C57.1432 32.4702 57.4913 31.5598 58.1251 30.8625C58.8293 30.2781 59.7229 29.9713 60.6376 30C61.1781 29.9853 61.7154 30.0876 62.2126 30.3C62.6487 30.4802 63.0347 30.7633 63.3376 31.125C63.3376 31.125 64.1251 32.475 64.4251 32.925C64.6556 33.3106 64.9787 33.6325 65.365 33.8617C65.7514 34.0909 66.1888 34.22 66.6376 34.2375C67.0906 34.1606 67.5239 33.9949 67.9126 33.75L69.1126 33.0375L72.4501 31.725L74.5126 35.775L74.7001 36.3375L74.0626 36.7875C72.7104 38.2088 71.7425 39.951 71.2501 41.85C71.0766 42.6539 71.0878 43.4866 71.2826 44.2855C71.4775 45.0845 71.851 45.8288 72.3751 46.4625C72.8234 47.1147 73.4143 47.6562 74.1031 48.0461C74.7918 48.4359 75.5602 48.6638 76.3501 48.7125C77.5398 48.6629 78.7154 48.4354 79.8376 48.0375C80.1376 48.4875 80.5501 48.9375 80.5501 48.975C81.3001 50.4375 82.1626 51.9 82.9126 53.3625C83.1001 53.775 83.2501 54.225 83.4376 54.6375C82.7251 54.975 82.0501 55.35 81.3001 55.65C79.7626 56.2875 78.1501 56.6625 76.5751 57.1875C75.0001 57.7125 73.3501 58.4625 71.8126 59.1L66.1126 62.5875L62.3626 64.425C61.9549 64.609 61.6369 64.9474 61.4787 65.3659C61.3204 65.7843 61.3349 66.2485 61.5189 66.6562C61.7029 67.064 62.0413 67.382 62.4598 67.5402C62.8782 67.6985 63.3424 67.684 63.7501 67.5C67.135 66.4867 70.4434 65.2335 73.6501 63.75C74.7376 63.3 75.8626 62.8875 76.9501 62.3625C78.0376 61.8375 79.2001 61.2375 80.2501 60.6375C81.3639 59.9178 82.4403 59.1418 83.4751 58.3125L83.2501 62.475C83.2501 65.025 83.2501 65.7375 80.0626 67.9875C77.7369 69.3982 75.3189 70.651 72.8251 71.7375C70.7251 72.8625 68.4751 73.8375 66.2626 74.775C65.1001 75.3 63.8626 75.7875 62.5126 76.275C62.5126 75.3375 62.8501 71.4375 61.1626 71.4375C59.4751 71.4375 58.2376 72.375 58.7251 75.4875C58.9126 76.725 59.1001 76.3125 59.5126 77.5125L50.1376 81.2625C46.6876 82.725 43.5001 84.4875 40.0876 85.875C38.6982 86.4506 37.2696 86.9268 35.8126 87.3C35.4397 87.3845 35.1156 87.6138 34.9116 87.9373C34.7077 88.2608 34.6406 88.652 34.7251 89.025C34.8097 89.398 35.0389 89.7221 35.3624 89.926C35.6859 90.13 36.0772 90.197 36.4501 90.1125C38.0822 89.7692 39.6866 89.3055 41.2501 88.725C44.7751 87.6 48.1126 86.1 51.6001 84.975C56.3251 83.325 61.1626 81.9 65.7751 80.0625C68.9457 78.7812 72.0275 77.2904 75.0001 75.6C77.6205 74.2247 80.1283 72.6448 82.5001 70.875C84.1235 69.5291 85.408 67.8207 86.2501 65.8875C86.4594 65.4959 86.5629 65.0564 86.5501 64.6125C86.5501 63.7875 86.1751 62.625 86.1376 62.0625C85.8751 50.6625 89.0251 60.2625 83.5126 47.55Z" fill="black"/>
<path fill-rule="evenodd" clip-rule="evenodd" d="M31.6126 86.925C29.5135 86.0006 27.7471 84.4566 26.5501 82.5C24.604 79.1493 22.9238 75.6511 21.5251 72.0375C20.6251 70.0875 19.8001 68.1 18.9751 66.1125C17.6251 63.1125 13.4251 52.5 13.3126 52.1625C12.2626 49.575 11.0251 47.025 10.0126 44.4375C9.6001 43.3875 9.1876 42.3375 8.8126 41.25C8.4376 40.1625 7.8751 38.175 7.5001 36.6C7.2244 35.6627 6.99908 34.7114 6.8251 33.75C6.59755 32.9232 6.59214 32.0509 6.80941 31.2214C7.02669 30.3918 7.45896 29.6342 8.0626 29.025C8.7376 28.0875 9.4876 27.225 10.2376 26.3625C10.592 29.4518 11.1178 32.5191 11.8126 35.55C12.5626 38.8875 13.8001 41.475 14.8126 44.85C15.1876 46.05 15.3001 46.65 15.9751 48.4125C16.234 48.7859 16.609 49.0634 17.0418 49.2018C17.4747 49.3402 17.9411 49.3318 18.3686 49.1779C18.7962 49.024 19.1609 48.7331 19.4062 48.3506C19.6515 47.9681 19.7636 47.5153 19.7251 47.0625C19.1626 45.6 19.0126 45.1125 18.5626 44.025C17.0251 40.275 15.6001 36.525 14.4376 32.775C13.7626 30 13.0876 27.4125 12.5626 24.75C12.5626 24.75 12.5626 24.525 12.3376 24.375C16.8751 22.725 21.3751 20.625 25.9501 19.0125C27.9692 18.2523 30.0362 17.626 32.1376 17.1375C33.5196 16.462 34.9639 15.922 36.4501 15.525C36.8251 16.2375 37.3876 17.25 37.8376 18.3C38.2668 19.1912 38.5697 20.1378 38.7376 21.1125C38.7376 21.1125 38.7376 21.5625 38.7376 21.1125C38.4868 21.5471 38.1846 21.95 37.8376 22.3125C36.9789 23.2196 36.2701 24.2576 35.7376 25.3875C35.4481 26.0366 35.2984 26.7393 35.2984 27.45C35.2984 28.1607 35.4481 28.8635 35.7376 29.5125C36.2566 31.0071 37.2098 32.3128 38.4751 33.2625C39.8223 34.2212 41.4924 34.6118 43.1251 34.35H43.8376C43.8159 34.4741 43.8159 34.601 43.8376 34.725L45.0751 37.8375C46.2001 39.7875 48.3001 38.025 47.9626 36.45L47.0251 33.525C46.7941 32.7105 46.5187 31.9093 46.2001 31.125C46.0677 30.8245 45.8601 30.5631 45.5974 30.3661C45.3347 30.169 45.0257 30.043 44.7001 30C44.3422 29.9181 43.9705 29.9181 43.6126 30C43.3126 30 42.2251 30.2625 42.2626 30.6375C41.7438 30.5791 41.2574 30.3556 40.8751 30C40.3481 29.5096 39.9601 28.8886 39.7501 28.2C39.6827 28.0529 39.6478 27.8931 39.6478 27.7313C39.6478 27.5695 39.6827 27.4096 39.7501 27.2625C40.3051 26.4465 40.9602 25.7032 41.7001 25.05C42.5198 24.1829 43.1124 23.1265 43.4251 21.975C43.5619 20.6975 43.3682 19.4062 42.8626 18.225C42.1312 16.2616 41.2277 14.3668 40.1626 12.5625C39.8496 12.0797 39.4028 11.6984 38.8767 11.4653C38.3506 11.2323 37.768 11.1574 37.2001 11.25C35.0584 11.6495 32.9422 12.1754 30.8626 12.825C28.6524 13.5441 26.4968 14.4213 24.4126 15.45C19.6501 17.5875 15.0001 20.2875 10.3876 22.5L9.5626 23.0625C8.3251 24.3375 6.9751 25.65 5.8126 27.075C4.9629 28.0721 4.19776 29.1383 3.5251 30.2625C3.34571 30.6516 3.24381 31.0719 3.2251 31.5C3.2251 32.325 3.4126 33.525 3.4126 34.0125C3.4126 35.175 3.6376 36.3 3.8626 37.4625C4.0876 38.625 4.4626 40.725 4.8001 42.375C5.17872 44.0307 5.6673 45.6593 6.2626 47.25C7.0876 49.5 8.0251 51.75 8.8876 54C10.5001 58.0875 12.0751 62.175 13.8376 66.1875C15.0751 68.8875 16.4251 71.55 17.8501 74.1375C19.5593 77.8198 21.5659 81.3565 23.8501 84.7125C25.604 87.1373 28.0875 88.9375 30.9376 89.85C31.2058 89.9238 31.4902 89.913 31.752 89.819C32.0137 89.7251 32.2401 89.5525 32.4001 89.325C32.6122 89.5361 32.89 89.6684 33.1876 89.7C33.3759 89.7154 33.5654 89.6921 33.7444 89.6317C33.9234 89.5712 34.0882 89.4748 34.2287 89.3484C34.3691 89.222 34.4823 89.0683 34.5612 88.8966C34.6401 88.7249 34.6831 88.5389 34.6876 88.35C35.1084 86.6626 35.3967 84.9449 35.5501 83.2125C34.5376 81.2625 33.4501 80.625 31.8001 82.05C31.4147 83.6465 31.351 85.3037 31.6126 86.925Z" fill="black"/>
<path fill-rule="evenodd" clip-rule="evenodd" d="M43.5376 6.56255L44.5876 7.91255C44.9626 8.32505 45.3376 8.73755 45.7501 9.11255C49.5001 12.8626 49.5001 12.8626 50.4751 12.5251C52.1626 11.7001 49.7251 6.82505 49.4251 6.30005C49.0906 5.69569 48.6742 5.14044 48.1876 4.65005C47.7415 4.14363 47.2381 3.69061 46.6876 3.30005C41.7751 -0.449948 40.9126 0.825052 40.5751 1.35005C40.2376 1.87505 40.4251 2.70005 43.5376 6.56255Z" fill="black"/>
<path fill-rule="evenodd" clip-rule="evenodd" d="M58.2375 11.2501C58.65 11.2501 59.4375 11.6626 61.3875 7.50005C61.5868 7.10716 61.7379 6.69165 61.8375 6.26255C61.8375 5.85005 61.8375 5.43755 62.0625 5.02505C62.4375 1.05005 62.5875 0.525052 61.575 0.0750518C61.1625 0.0750518 59.9625 -0.749948 57.825 3.82505C57.5894 4.24904 57.4127 4.70324 57.3 5.17505C57.1586 5.62569 57.0705 6.09138 57.0375 6.56255C57.0375 6.56255 56.85 11.2501 58.2375 11.2501Z" fill="black"/>
<path fill-rule="evenodd" clip-rule="evenodd" d="M72.1125 15.0001C72.675 14.7376 73.2 14.4376 73.725 14.1376L75.3375 13.1251C79.725 10.2376 80.5875 10.0501 80.1 8.70009C79.875 8.13759 79.5375 6.93759 73.35 9.00009C72.6521 9.24562 71.9749 9.54658 71.325 9.90009C70.6753 10.2688 70.0603 10.6955 69.4875 11.1751C68.5875 12.0001 64.95 15.8251 66.3 17.1001C67.65 18.3751 67.1625 17.5876 72.1125 15.0001Z" fill="black"/>
<path fill-rule="evenodd" clip-rule="evenodd" d="M60.0001 64.6501L57.8626 59.1001C58.5001 58.7251 59.2126 58.4251 59.2501 58.3876C60.5244 57.3197 61.5161 55.9546 62.1376 54.4126C62.6056 53.2204 62.7227 51.9192 62.4751 50.6626C62.3424 49.901 62.0541 49.1749 61.6283 48.5297C61.2025 47.8845 60.6482 47.334 60.0001 46.9126C58.3445 45.8443 56.3707 45.3807 54.4126 45.6001L52.2376 46.0501L51.7501 45.4501L49.3876 41.2501C49.3876 41.2501 48.7126 39.1126 48.0751 38.9251C46.2751 38.4001 42.8626 41.5876 41.4376 42.4501C40.8827 42.7871 40.3065 43.0877 39.7126 43.3501C39.3751 43.3501 37.8376 43.9126 37.2376 44.2126C36.811 44.4585 36.4805 44.8419 36.3001 45.3001C36.2363 45.6346 36.2363 45.9781 36.3001 46.3126C36.3001 46.8751 36.7876 48.0001 36.7876 48.4501C36.8462 49.4006 36.6792 50.3515 36.3001 51.2251C36.0122 51.936 35.4804 52.5209 34.8001 52.8751C34.5709 53.0032 34.3127 53.0704 34.0501 53.0704C33.7875 53.0704 33.5293 53.0032 33.3001 52.8751C32.4811 52.4143 31.7561 51.8037 31.1626 51.0751C30.5838 50.3588 29.9574 49.6822 29.2876 49.0501C28.674 48.5723 27.927 48.2971 27.1501 48.2626C26.6173 48.2938 26.0893 48.3818 25.5751 48.5251C24.2251 48.8251 22.8376 49.5376 21.5626 49.6876H21.0751C19.8751 49.2001 16.6501 51.3751 17.1001 52.6501C17.1001 52.9126 20.8501 61.5751 22.1626 64.6501C23.1376 67.0876 24.1126 69.4876 25.1626 71.8501C25.8764 73.666 26.7815 75.4008 27.8626 77.0251C28.5359 77.8544 29.3327 78.5753 30.2251 79.1626C31.6948 79.9537 33.322 80.4078 34.9889 80.4921C36.6558 80.5765 38.3206 80.2888 39.8626 79.6501C42.429 78.9466 44.9367 78.0438 47.3626 76.9501C49.6893 75.8199 51.9549 74.5682 54.1501 73.2001C55.0876 72.6376 56.8501 71.9251 58.2001 71.0626C58.2001 71.3626 60.7876 69.5251 61.0126 68.6251C61.0981 67.2269 60.7441 65.837 60.0001 64.6501ZM56.5126 55.2001C56.5126 55.2001 54.8251 56.3251 54.2626 56.7751C53.874 57.053 53.5772 57.4406 53.4102 57.8882C53.2432 58.3358 53.2136 58.8231 53.3251 59.2876L55.5001 66.0001L55.8751 66.6751L55.1251 67.0876C53.8501 67.8001 52.2751 68.4376 51.3751 68.9251C49.3126 70.1626 47.2126 71.3251 45.0001 72.3751C42.8553 73.402 40.6366 74.2669 38.3626 74.9626C37.2589 75.34 36.1126 75.5793 34.9501 75.6751C33.9495 75.7648 32.9425 75.597 32.0251 75.1876C31.4147 74.8609 30.8983 74.3832 30.5251 73.8001C29.708 72.6058 28.981 71.3524 28.3501 70.0501C26.8501 67.2376 25.4626 64.3876 24.1126 61.5001C22.7626 58.6126 22.0501 56.8501 21.0376 54.4876H21.8251C28.7251 52.6876 26.1751 53.1001 27.5626 54.4876C28.806 55.8624 30.3811 56.8953 32.1376 57.4876C32.8744 57.7216 33.6519 57.7991 34.4203 57.7152C35.1888 57.6312 35.9313 57.3876 36.6001 57.0001C37.8492 56.2995 38.8463 55.2237 39.4501 53.9251C40.2771 52.2134 40.5897 50.2985 40.3501 48.4126C40.257 48.0686 40.0907 47.7489 39.8626 47.4751C40.3876 47.2126 40.9501 46.7626 41.1001 46.6876C41.7964 46.311 42.4724 45.8979 43.1251 45.4501C44.2876 44.6251 45.4126 43.6876 46.6126 42.8626L48.8626 47.3251C49.0768 47.9694 49.3663 48.5862 49.7251 49.1626C50.0165 49.5297 50.4282 49.7821 50.8876 49.8751C51.3973 49.9505 51.9154 49.9505 52.4251 49.8751C53.1751 49.8751 54.0376 49.5001 54.7126 49.4626C55.6388 49.4091 56.5614 49.617 57.3751 50.0626C57.6863 50.2056 57.9601 50.4189 58.1748 50.6857C58.3895 50.9525 58.5394 51.2655 58.6126 51.6001C58.6954 52.2779 58.5503 52.9639 58.2001 53.5501C57.7396 54.1828 57.1828 54.7395 56.5501 55.2001H56.5126Z" fill="black"/>
</g>
<defs>
<clipPath id="clip0_65_634">
<rect width="90" height="90" fill="white"/>
</clipPath>
</defs>
</svg>
