<svg width="90" height="85" viewBox="0 0 90 85" fill="none" xmlns="http://www.w3.org/2000/svg">
<g clip-path="url(#clip0_65_656)">
<path d="M89.6625 39.2625C88.942 38.2595 88.0835 37.3631 87.1125 36.6C83.85 33.9375 79.2 32.0625 76.6875 29.1C76.3841 28.553 76.1809 27.9561 76.0875 27.3375C75.2625 23.85 75 18.75 74.025 16.725C71.9716 12.1983 68.7323 8.31106 64.65 5.47503C60.5411 2.63579 55.7812 0.881437 50.8125 0.375028C39.681 -0.446986 28.607 2.59968 19.4625 9.00003C9.96652 14.9596 3.15133 24.3692 0.450003 35.25C-0.112241 38.589 -0.112241 41.9985 0.450003 45.3375C1.2909 50.2206 2.83177 54.9569 5.025 59.4C6.80675 63.3921 9.21176 67.0756 12.15 70.3125C13.7982 72.0342 15.6941 73.5003 17.775 74.6625C17.775 75.6 17.5125 76.5375 17.3625 77.5125C17.2483 78.0817 17.1731 78.6581 17.1375 79.2375C17.1375 79.8375 17.1375 80.4 17.1375 81C17.1375 82.4625 17.1375 83.8875 16.8 85.35C16.7548 85.5052 16.7415 85.6678 16.7607 85.8283C16.7799 85.9887 16.8313 86.1436 16.9119 86.2837C16.9924 86.4238 17.1004 86.5461 17.2294 86.6434C17.3584 86.7408 17.5057 86.811 17.6625 86.85C17.8151 86.8958 17.9754 86.9107 18.1339 86.8939C18.2923 86.8771 18.4459 86.8289 18.5855 86.7521C18.7251 86.6753 18.8481 86.5714 18.9471 86.4466C19.0462 86.3218 19.1194 86.1785 19.1625 86.025C19.8429 84.6273 20.4316 83.1867 20.925 81.7125C21.1162 81.0623 21.2542 80.3976 21.3375 79.725C21.4313 79.0282 21.4313 78.3219 21.3375 77.625C21.3375 76.3875 21.75 73.4625 19.95 72.7875L18.2625 72.375C16.103 70.9722 14.2004 69.2091 12.6375 67.1625C10.5614 64.4392 8.83537 61.4659 7.5 58.3125C5.82914 54.7162 4.57111 50.9421 3.75 47.0625C2.9819 43.3519 2.9819 39.5232 3.75 35.8125C6.55086 26.0059 12.9711 17.6288 21.7125 12.375C30.1084 6.53703 40.2315 3.70893 50.4375 4.35003C54.7518 4.71163 58.9051 6.15624 62.5125 8.55003C66.1186 10.9491 69.0082 14.2793 70.875 18.1875C71.7375 19.9125 72.15 24.8625 72.975 27.9375C73.1801 29.0058 73.6152 30.0167 74.25 30.9C76.95 34.1625 81.75 36.1125 85.5 38.8125C85.9125 39.15 86.325 39.4875 86.7 39.8625C83.925 40.95 77.9625 42.3 75.45 42.975C70.4625 44.25 73.6875 46.35 72.6375 57.975C72.189 62.1045 70.5471 66.0138 67.9125 69.225C65.7959 72.1556 62.7598 74.2941 59.2875 75.3C55.6417 76.4052 51.7848 76.6237 48.0375 75.9375C47.7594 75.8815 47.4704 75.9365 47.2321 76.0906C46.9939 76.2448 46.8254 76.4859 46.7625 76.7625C46.7237 76.9008 46.7147 77.0458 46.7362 77.1878C46.7578 77.3298 46.8092 77.4656 46.8873 77.5862C46.9653 77.7068 47.0681 77.8094 47.1888 77.8872C47.3095 77.965 47.4454 78.0163 47.5875 78.0375C49.0893 78.4367 50.6184 78.725 52.1625 78.9C51.9777 80.1432 51.9777 81.4069 52.1625 82.65C52.3072 83.5598 52.546 84.4521 52.875 85.3125C53.4 86.5875 54.075 87.7125 54.6 89.0625C54.6746 89.3758 54.8706 89.6466 55.1449 89.8154C55.4191 89.9842 55.7492 90.0371 56.0625 89.9625C56.3758 89.8879 56.6466 89.6919 56.8154 89.4177C56.9842 89.1434 57.0371 88.8133 56.9625 88.5C56.9625 87.1875 56.9625 85.875 56.6625 84.525C56.6019 83.9809 56.5016 83.442 56.3625 82.9125C56.2523 82.3892 56.1019 81.8752 55.9125 81.375C55.65 80.5875 55.3125 79.875 55.0125 79.125C56.6929 79.0897 58.3648 78.876 60 78.4875C64.3448 77.5339 68.2341 75.1263 71.025 71.6625C73.629 67.7817 75.3094 63.3561 75.9375 58.725C76.6676 54.3443 76.4632 49.8587 75.3375 45.5625L75.9 45.375C80.0401 44.5415 84.1333 43.4901 88.1625 42.225C88.7108 42.002 89.2083 41.6704 89.625 41.25C89.8805 40.9844 90.0264 40.6321 90.0333 40.2636C90.0403 39.8951 89.9078 39.5376 89.6625 39.2625Z" fill="black"/>
<path d="M56.8501 36.4125C58.7107 35.3227 60.3225 33.8554 61.5819 32.1052C62.8413 30.3549 63.7204 28.3605 64.1626 26.25C64.3178 24.7231 64.1252 23.1808 63.5991 21.739C63.073 20.2972 62.2272 18.9932 61.1251 17.925C59.6823 16.4237 57.8727 15.325 55.8751 14.7375C55.2596 14.5601 54.6333 14.4224 54.0001 14.325C53.5688 13.6709 53.0657 13.0672 52.5001 12.525C50.4659 10.3363 47.6799 8.99691 44.7001 8.77503C41.7035 8.73866 38.7647 9.6007 36.2626 11.25C34.6885 12.2477 33.3044 13.5175 32.1751 15C30.3074 14.1617 28.193 14.0546 26.2501 14.7C24.3077 15.3763 22.5293 16.4536 21.0304 17.862C19.5316 19.2704 18.3458 20.9784 17.5501 22.875C16.7167 24.7613 16.3317 26.815 16.4251 28.875C15.2649 29.5317 14.2353 30.396 13.3876 31.425C11.8437 33.5997 11.1989 36.2865 11.5876 38.925C11.7227 40.3116 12.1752 41.6484 12.91 42.832C13.6449 44.0155 14.6423 45.014 15.8251 45.75C19.1789 46.9139 22.7003 47.5219 26.2501 47.55H30.0001C28.2751 49.875 27.6751 53.7 30.0001 60.6375C30.0432 60.791 30.1164 60.9343 30.2155 61.0591C30.3145 61.1839 30.4375 61.2878 30.5771 61.3646C30.7168 61.4414 30.8703 61.4896 31.0288 61.5064C31.1872 61.5232 31.3475 61.5083 31.5001 61.4625C31.7755 61.346 31.9995 61.1337 32.1305 60.8648C32.2614 60.596 32.2906 60.2887 32.2126 60C30.4876 54.075 30.7126 50.9625 32.2126 49.0875C32.8567 48.3382 33.6652 47.7478 34.5751 47.3625C37.4916 46.5392 40.3588 45.5501 43.1626 44.4C45.0376 43.5 46.9126 42.4875 48.7501 41.4375C51.6001 39.8625 54.2626 38.1375 56.8501 36.4125ZM51.1501 18.15C51.2174 18.7471 51.1402 19.3515 50.9251 19.9125C50.8029 20.2379 50.6125 20.5334 50.3668 20.7792C50.121 21.025 49.8255 21.2153 49.5001 21.3375C49.3183 21.4633 49.1025 21.5307 48.8814 21.5307C48.6603 21.5307 48.4444 21.4633 48.2626 21.3375C47.8876 20.925 48.2626 20.475 48.2626 20.1C48.9005 19.3365 49.7282 18.7544 50.6626 18.4125L51.1501 18.15ZM42.0376 41.8125C38.8876 43.3875 35.4751 44.0625 32.8876 45.5625C30.7019 45.6866 28.5109 45.6866 26.3251 45.5625C23.1944 45.4729 20.0959 44.9038 17.1376 43.875C16.3287 43.3479 15.6534 42.6398 15.1653 41.8067C14.6772 40.9736 14.3895 40.0384 14.3251 39.075C14.0357 37.1316 14.5204 35.1523 15.6751 33.5625C16.0587 33.1073 16.4999 32.7039 16.9876 32.3625C17.2818 33.307 17.7112 34.2038 18.2626 35.025C18.9317 36.0633 19.8245 36.9389 20.8756 37.5877C21.9267 38.2365 23.1095 38.6422 24.3376 38.775C25.3245 38.792 26.2874 38.4698 27.0654 37.8624C27.8435 37.255 28.3896 36.3991 28.6126 35.4375C29.0043 34.4759 29.124 33.425 28.9587 32.3999C28.7933 31.3747 28.3493 30.4148 27.6751 29.625C27.122 28.913 26.4257 28.3249 25.6312 27.8986C24.8368 27.4723 23.9617 27.2173 23.0626 27.15C22.08 27.0916 21.0941 27.1801 20.1376 27.4125C20.2926 26.367 20.5825 25.346 21.0001 24.375C21.5994 23.0029 22.4746 21.7688 23.5714 20.7495C24.6681 19.7302 25.9629 18.9474 27.3751 18.45C28.3238 18.13 29.3514 18.13 30.3001 18.45C29.6084 20.9756 29.9455 23.6724 31.2376 25.95C31.769 26.6613 32.5355 27.161 33.4007 27.3601C34.2659 27.5593 35.1738 27.4449 35.9626 27.0375C36.5662 26.8139 37.0942 26.4241 37.4857 25.9132C37.8772 25.4022 38.1162 24.791 38.1751 24.15C38.1914 22.4001 37.7381 20.6778 36.8626 19.1625C36.4806 18.524 36.0413 17.9215 35.5501 17.3625C36.3569 16.2958 37.3474 15.3815 38.4751 14.6625C40.321 13.4482 42.491 12.8208 44.7001 12.8625C46.4131 13.0332 48.0152 13.7879 49.2376 15C47.3797 15.7277 45.8119 17.0452 44.7751 18.75C44.2781 19.5543 44.0669 20.5027 44.1758 21.4418C44.2847 22.3809 44.7072 23.2559 45.3751 23.925C45.9148 24.5658 46.6189 25.0475 47.4117 25.3184C48.2045 25.5893 49.0561 25.6391 49.8751 25.4625C50.937 25.2374 51.9284 24.7582 52.7644 24.0659C53.6004 23.3735 54.256 22.4888 54.6751 21.4875C55.0307 20.5547 55.1964 19.5603 55.1626 18.5625C56.4427 18.9562 57.6033 19.6655 58.5376 20.625C59.5046 21.4724 60.2014 22.5853 60.5414 23.8253C60.8814 25.0653 60.8497 26.3779 60.4501 27.6C59.3074 30.1451 57.426 32.2878 55.0501 33.75C52.5751 35.475 49.9876 37.2375 47.5501 38.85C45.6001 39.9375 43.8376 40.95 42.0376 41.8125ZM20.3251 30.5625C21.128 30.3289 21.9661 30.2401 22.8001 30.3C23.2613 30.347 23.7072 30.4916 24.1081 30.7244C24.509 30.9572 24.8557 31.2727 25.1251 31.65C25.3403 31.95 25.4856 32.2942 25.5505 32.6576C25.6154 33.0209 25.5982 33.3942 25.5001 33.75C25.462 33.9249 25.3874 34.0899 25.2813 34.234C25.1752 34.3782 25.0399 34.4984 24.8843 34.5869C24.7286 34.6753 24.5561 34.73 24.3779 34.7473C24.1997 34.7647 24.0199 34.7443 23.8501 34.6875C22.7795 34.3119 21.8675 33.5849 21.2626 32.625C20.844 31.9774 20.5278 31.2691 20.3251 30.525V30.5625Z" fill="black"/>
</g>
<defs>
<clipPath id="clip0_65_656">
<rect width="90" height="90" fill="white"/>
</clipPath>
</defs>
</svg>
