<svg width="86" height="86" viewBox="0 0 86 86" fill="none" xmlns="http://www.w3.org/2000/svg">
<path fill-rule="evenodd" clip-rule="evenodd" d="M43.9319 58.2649C44.111 58.2649 44.2185 58.2649 44.2902 58.2649H43.9319ZM44.2902 58.2649C44.541 57.7632 44.2902 57.9066 43.9319 58.2649C43.6094 58.0858 43.1077 57.6199 42.606 57.2974C38.6285 54.8607 29.706 48.8407 27.126 44.9349C24.6777 41.4063 23.3423 37.2253 23.2919 32.9307C23.1607 31.0151 23.656 29.1088 24.7031 27.4993C25.7503 25.8898 27.2924 24.6645 29.0969 24.0082C30.8022 23.4155 32.5948 23.1127 34.4002 23.1124C35.946 23.0936 37.4424 23.6563 38.5927 24.6891C39.1803 25.3416 39.6857 26.0636 40.0977 26.8391C40.8568 28.1479 41.5388 29.4999 42.1402 30.8882C42.2979 31.2131 42.5361 31.4921 42.8322 31.6987C43.1283 31.9054 43.4724 32.0327 43.8317 32.0686C44.191 32.1046 44.5535 32.0479 44.8847 31.904C45.2159 31.7601 45.5046 31.5338 45.7235 31.2466C45.7235 31.2466 47.4435 28.6307 49.3069 26.4091C49.953 25.4817 50.7387 24.6597 51.636 23.9724C52.6169 23.3229 53.7479 22.9357 54.921 22.8479C56.0942 22.76 57.2702 22.9745 58.3369 23.4707C60.6433 24.6975 62.4817 26.6493 63.5685 29.0249C64.8884 31.7414 65.0941 34.8663 64.1419 37.7324C62.3265 42.3114 59.5249 46.4344 55.936 49.8082L49.271 55.9716C49.0363 56.1844 48.8908 56.4781 48.8638 56.7938C48.8368 57.1094 48.9302 57.4236 49.1254 57.6732C49.3205 57.9228 49.6029 58.0893 49.9157 58.1392C50.2286 58.1892 50.5487 58.1188 50.8119 57.9424L57.9785 51.7432C62.0149 48.1703 65.1986 43.7377 67.2952 38.7716C67.9744 36.9627 68.2893 35.0374 68.2216 33.1064C68.154 31.1754 67.7052 29.2768 66.901 27.5199C65.5603 24.3378 63.1873 21.6997 60.1644 20.0307C58.5268 19.1926 56.7016 18.7888 54.8633 18.8578C53.0251 18.9268 51.2353 19.4664 49.6652 20.4249C48.6137 21.1311 47.6719 21.9884 46.8702 22.9691C46.0819 23.9007 45.2577 24.9757 44.5052 25.9432C44.2902 25.5491 44.0752 25.1191 43.8244 24.7249C43.2212 23.6252 42.4873 22.6025 41.6385 21.6791C40.0494 20.1842 38.0061 19.2635 35.8335 19.0632C33.0371 18.7738 30.2119 19.1546 27.5919 20.1741C25.5238 20.9144 23.6986 22.208 22.3148 23.9139C20.9311 25.6199 20.042 27.6728 19.7444 29.8491C19.1469 35.8415 20.8792 41.8339 24.5819 46.5832C28.9169 51.1453 33.9188 55.0236 39.4169 58.0857C41.0652 59.0891 42.4269 59.8416 43.0002 60.1641L43.5735 60.4149C43.7794 60.4935 44.0048 60.5045 44.2174 60.4466C44.4299 60.3886 44.6186 60.2646 44.756 60.0924C44.8588 59.9827 44.9374 59.8527 44.9867 59.7107C45.0361 59.5688 45.0552 59.418 45.0427 59.2683C45.026 59.0509 44.9458 58.8434 44.812 58.6713C44.6782 58.4993 44.4967 58.3704 44.2902 58.3008V58.2649Z" fill="black"/>
<path fill-rule="evenodd" clip-rule="evenodd" d="M78.0451 13.0791C78.0451 13.6166 78.0451 14.6916 78.0451 16.1608C77.8659 23.7575 77.1134 41.6383 76.6834 47.2283C76.5515 50.4008 76.0708 53.5492 75.2501 56.6166C74.6687 58.5045 73.7187 60.2583 72.4551 61.7766C69.2923 65.5345 65.6822 68.8918 61.7051 71.7741C57.8248 74.7322 53.6165 77.2331 49.1634 79.2275L41.6026 81.9866C36.0088 80.1885 30.7793 77.41 26.1584 73.7808C21.1902 70.5057 16.8258 66.396 13.2584 61.6333C10.9293 58.05 9.92594 50.4891 9.46011 42.3191C9.03969 32.986 9.26718 23.6349 10.1409 14.3333C10.1409 13.33 10.4634 12.255 10.4993 11.9683C14.7993 6.84413 23.7218 4.2283 33.5759 3.2608C47.9093 1.89913 64.1059 4.19246 72.4909 8.49247C72.6203 8.56112 72.7619 8.60354 72.9076 8.61728C73.0534 8.63101 73.2004 8.6158 73.3403 8.57251C73.4802 8.52921 73.6101 8.4587 73.7226 8.36502C73.8351 8.27134 73.928 8.15634 73.9959 8.02663C74.1253 7.76375 74.149 7.46133 74.0624 7.18147C73.9758 6.9016 73.7853 6.6655 73.5301 6.52163C64.9301 1.89913 48.1243 -0.860034 33.3251 0.250799C22.2168 1.07497 12.2909 4.15663 7.48927 9.99747C6.91352 11.2631 6.57351 12.6231 6.48594 14.0108C5.45082 23.5292 5.16328 33.1141 5.62594 42.6775C6.05594 51.7791 7.45344 60.1641 9.99761 64.1775C13.8624 69.3997 18.6174 73.8999 24.0443 77.4716C29.2767 81.3591 35.1801 84.2501 41.4593 86C42.3429 85.9635 43.2146 85.7819 44.0393 85.4625C46.1893 84.7458 49.5218 83.42 51.2059 82.7391C55.902 80.5626 60.3275 77.8447 64.3926 74.6408C68.4878 71.5113 72.1931 67.9022 75.4293 63.8908C76.8989 62.0282 77.994 59.8988 78.6543 57.62C79.4523 54.3332 79.8849 50.9684 79.9443 47.5866C80.2668 41.9608 80.6968 23.9725 80.7684 16.34C80.7684 14.7991 80.7684 13.6883 80.7684 13.1508C80.7822 12.7855 80.6625 12.4276 80.4317 12.144C80.2009 11.8605 79.8748 11.6706 79.5143 11.61C79.3482 11.605 79.1829 11.6341 79.0285 11.6953C78.8741 11.7566 78.7339 11.8488 78.6164 11.9663C78.4989 12.0837 78.4067 12.224 78.3455 12.3784C78.2842 12.5328 78.2551 12.6981 78.2601 12.8641L78.0451 13.0791Z" fill="black"/>
</svg>
